<svg width="248" height="287" viewBox="0 0 248 287" fill="none" xmlns="http://www.w3.org/2000/svg">
<path d="M47.8031 287C34.694 287 23.4495 281.954 14.0697 271.862C4.68991 261.634 0 246.019 0 225.018C0 204.698 3.95534 183.969 11.866 162.831C19.7767 141.557 30.5126 121.237 44.0738 101.872C57.748 82.5065 73.2303 65.187 90.5208 49.913C107.924 34.5027 126.175 22.3654 145.274 13.5011C164.373 4.50036 183.302 0 202.062 0C217.883 0 229.466 4.09123 236.812 12.2737C244.271 20.3198 248 30.6161 248 43.1625C248 48.2084 247.152 54.277 245.457 61.3685C243.875 68.3236 242.18 73.3694 240.372 76.5061C238.225 79.779 236.756 81.4155 235.964 81.4155C235.06 81.4155 234.608 80.7337 234.608 79.3699C234.608 78.8244 235.173 77.5971 236.303 75.6878C237.773 73.5058 239.298 69.1418 240.88 62.5959C242.463 55.9135 243.254 49.5721 243.254 43.5716C243.254 32.3889 239.863 23.32 233.083 16.3649C226.302 9.27346 215.34 5.72773 200.197 5.72773C187.992 5.72773 174.883 9.47802 160.869 16.9786C146.969 24.4792 132.956 34.6391 118.83 47.4583C104.817 60.1411 91.4249 74.5286 78.6548 90.6208C65.9977 106.713 54.6402 123.487 44.5824 140.943C34.6375 158.399 26.7833 175.514 21.0198 192.288C15.2563 208.926 12.3746 224.2 12.3746 238.11C12.3746 250.929 15.4823 261.43 21.6979 269.612C27.9134 277.795 37.2932 281.886 49.8373 281.886C62.0424 281.886 75.0385 278.136 88.8257 270.635C102.613 262.998 116.118 252.77 129.34 239.951C142.675 226.995 154.71 212.54 165.446 196.584C176.295 180.492 184.941 163.922 191.382 146.875C197.937 129.692 201.214 113.191 201.214 97.3713C201.214 85.6431 198.615 76.9834 193.416 71.392C188.331 65.8007 181.324 63.005 172.396 63.005C161.661 63.005 150.473 66.8235 138.833 74.4604C127.306 82.0974 116.57 92.5982 106.625 105.963C96.6799 119.191 88.5997 134.397 82.3841 151.58C76.1686 168.627 73.0608 186.628 73.0608 205.584C73.0608 210.903 73.5694 217.04 74.5865 223.995C75.7166 230.95 77.8072 237.155 80.8585 242.61C81.0845 243.019 81.3105 243.633 81.5366 244.451C81.8756 245.133 81.6496 245.747 80.8585 246.292C80.0674 246.701 78.7678 245.474 76.9597 242.61C74.8125 239.337 72.7783 234.019 70.8571 226.654C68.936 219.154 67.9754 211.312 67.9754 203.13C67.9754 183.628 71.0267 165.149 77.1292 147.694C83.2317 130.101 91.3684 114.555 101.539 101.053C111.823 87.416 123.237 76.7106 135.781 68.9373C148.325 61.1639 161.095 57.2773 174.092 57.2773C183.132 57.2773 191.269 60.8912 198.502 68.119C205.847 75.3469 209.52 86.8705 209.52 102.69C209.52 118.237 206.412 134.533 200.197 151.58C194.094 168.491 185.675 184.992 174.939 201.084C164.203 217.04 151.942 231.496 138.154 244.451C124.367 257.407 109.733 267.771 94.2502 275.545C78.7678 283.182 63.2855 287 47.8031 287Z" fill="#70AEFF"/>
</svg>
