<svg width="38" height="38" viewBox="0 0 38 38" fill="none" xmlns="http://www.w3.org/2000/svg">
<mask id="path-2-inside-1_319_4729" fill="white">
<path d="M16.4111 7.5C11.5499 8.93584 8.00195 13.4321 8.00195 18.7588C8.00217 25.2422 13.2578 30.4978 19.7412 30.498C25.8243 30.498 30.8268 25.8716 31.4219 19.9453C31.1412 20.0047 30.8501 20.0371 30.5518 20.0371C28.2409 20.0369 26.3672 18.1635 26.3672 15.8525C26.3672 15.1785 26.5284 14.5425 26.8115 13.9785C25.3901 13.85 24.2764 12.6571 24.2764 11.2021C24.2764 10.9832 24.3048 10.7709 24.3525 10.5664C24.0758 10.6753 23.7754 10.7373 23.46 10.7373C22.5015 10.7373 21.6748 10.1838 21.2754 9.37988C20.7588 9.79215 20.1058 10.041 19.3936 10.041C17.8884 10.041 16.6418 8.94016 16.4111 7.5Z"/>
</mask>
<path d="M16.4111 7.5C11.5499 8.93584 8.00195 13.4321 8.00195 18.7588C8.00217 25.2422 13.2578 30.4978 19.7412 30.498C25.8243 30.498 30.8268 25.8716 31.4219 19.9453C31.1412 20.0047 30.8501 20.0371 30.5518 20.0371C28.2409 20.0369 26.3672 18.1635 26.3672 15.8525C26.3672 15.1785 26.5284 14.5425 26.8115 13.9785C25.3901 13.85 24.2764 12.6571 24.2764 11.2021C24.2764 10.9832 24.3048 10.7709 24.3525 10.5664C24.0758 10.6753 23.7754 10.7373 23.46 10.7373C22.5015 10.7373 21.6748 10.1838 21.2754 9.37988C20.7588 9.79215 20.1058 10.041 19.3936 10.041C17.8884 10.041 16.6418 8.94016 16.4111 7.5Z" fill="#CCE1FD" fill-opacity="0.86"/>
<path d="M16.4111 7.5L16.2695 7.02048L16.8149 6.85939L16.9048 7.42093L16.4111 7.5ZM8.00195 18.7588L7.50195 18.7588V18.7588H8.00195ZM19.7412 30.498V30.998H19.7412L19.7412 30.498ZM31.4219 19.9453L31.3184 19.4561L31.9877 19.3146L31.9194 19.9953L31.4219 19.9453ZM30.5518 20.0371V20.5371H30.5517L30.5518 20.0371ZM26.3672 15.8525H25.8672V15.8525L26.3672 15.8525ZM26.8115 13.9785L26.8565 13.4805L27.5878 13.5467L27.2584 14.2028L26.8115 13.9785ZM24.2764 11.2021H23.7764V11.2021L24.2764 11.2021ZM24.3525 10.5664L24.1694 10.1011L25.0562 9.75211L24.8394 10.6801L24.3525 10.5664ZM23.46 10.7373L23.46 11.2373H23.46V10.7373ZM21.2754 9.37988L20.9635 8.98909L21.4476 8.60273L21.7232 9.15742L21.2754 9.37988ZM19.3936 10.041L19.3936 10.541H19.3936V10.041ZM16.4111 7.5L16.5528 7.97952C11.8981 9.35434 8.50195 13.6599 8.50195 18.7588H8.00195H7.50195C7.50195 13.2044 11.2016 8.51733 16.2695 7.02048L16.4111 7.5ZM8.00195 18.7588L8.50195 18.7588C8.50216 24.9661 13.5339 29.9978 19.7412 29.998L19.7412 30.498L19.7412 30.998C12.9816 30.9978 7.50218 25.5184 7.50195 18.7588L8.00195 18.7588ZM19.7412 30.498V29.998C25.5649 29.998 30.3547 25.5687 30.9244 19.8954L31.4219 19.9453L31.9194 19.9953C31.2989 26.1745 26.0837 30.998 19.7412 30.998V30.498ZM31.4219 19.9453L31.5253 20.4345C31.2122 20.5007 30.8864 20.5371 30.5518 20.5371V20.0371V19.5371C30.8137 19.5371 31.0702 19.5086 31.3184 19.4561L31.4219 19.9453ZM30.5518 20.0371L30.5517 20.5371C27.9648 20.5369 25.8672 18.4396 25.8672 15.8525H26.3672H26.8672C26.8672 17.8873 28.517 19.5369 30.5518 19.5371L30.5518 20.0371ZM26.3672 15.8525L25.8672 15.8525C25.8672 15.0978 26.0479 14.3852 26.3647 13.7542L26.8115 13.9785L27.2584 14.2028C27.009 14.6997 26.8672 15.2592 26.8672 15.8525L26.3672 15.8525ZM26.8115 13.9785L26.7665 14.4765C25.0901 14.3249 23.7764 12.9185 23.7764 11.2021H24.2764H24.7764C24.7764 12.3956 25.69 13.3751 26.8565 13.4805L26.8115 13.9785ZM24.2764 11.2021L23.7764 11.2021C23.7764 10.9397 23.8104 10.6891 23.8656 10.4527L24.3525 10.5664L24.8394 10.6801C24.7991 10.8526 24.7764 11.0266 24.7764 11.2022L24.2764 11.2021ZM24.3525 10.5664L24.5357 11.0317C24.204 11.1622 23.8416 11.2373 23.46 11.2373L23.46 10.7373L23.4599 10.2373C23.7092 10.2373 23.9476 10.1884 24.1694 10.1011L24.3525 10.5664ZM23.46 10.7373V11.2373C22.3033 11.2373 21.3077 10.5687 20.8276 9.60235L21.2754 9.37988L21.7232 9.15742C22.0418 9.7988 22.6996 10.2373 23.46 10.2373V10.7373ZM21.2754 9.37988L21.5873 9.77068C20.9865 10.2501 20.2247 10.541 19.3936 10.541L19.3936 10.041L19.3935 9.54102C19.987 9.54098 20.5311 9.33415 20.9635 8.98909L21.2754 9.37988ZM19.3936 10.041V10.541C17.6385 10.541 16.1862 9.25747 15.9174 7.57907L16.4111 7.5L16.9048 7.42093C17.0973 8.62285 18.1383 9.54102 19.3936 9.54102V10.041Z" fill="black" mask="url(#path-2-inside-1_319_4729)"/>
<circle cx="2.5" cy="2.5" r="2.25" transform="matrix(-1 0 0 1 26 19.498)" stroke="black" stroke-width="0.5"/>
<circle cx="0.5" cy="0.5" r="0.5" transform="matrix(-1 0 0 1 16 12.498)" fill="black"/>
<circle cx="0.5" cy="0.5" r="0.5" transform="matrix(-1 0 0 1 14 20.498)" fill="black"/>
<circle cx="1.5" cy="1.5" r="1.25" transform="matrix(-1 0 0 1 18 16.498)" stroke="black" stroke-width="0.5"/>
<circle cx="0.5" cy="0.5" r="0.5" transform="matrix(-1 0 0 1 18 26.498)" fill="black"/>
</svg>
