<svg width="24" height="24" viewBox="0 0 24 24" fill="none" xmlns="http://www.w3.org/2000/svg">
<path d="M11.9998 2C6.29881 2 1.67725 6.47714 1.67725 12C1.67725 17.5229 6.29881 22 11.9998 22C17.7008 22 22.3224 17.5229 22.3224 12C22.3224 6.47714 17.7008 2 11.9998 2ZM16.7845 8.80081C16.6292 10.3821 15.957 14.2193 15.6149 15.9903C15.4702 16.7397 15.1853 16.991 14.9095 17.0155C14.3101 17.069 13.8548 16.6318 13.2742 16.2631C12.3657 15.6861 11.8524 15.327 10.9705 14.764C9.95138 14.1134 10.6121 13.7559 11.1929 13.1712C11.3449 13.0183 13.9861 10.691 14.0372 10.4799C14.0436 10.4535 14.0497 10.3549 13.9892 10.3031C13.9287 10.2513 13.8397 10.2689 13.7754 10.2829C13.6843 10.303 12.233 11.2323 9.4213 13.0709C9.00937 13.345 8.63623 13.4785 8.30189 13.4715C7.93331 13.4638 7.22434 13.2696 6.69727 13.1036C6.05082 12.9001 5.53702 12.7925 5.58176 12.4467C5.60507 12.2666 5.86105 12.0825 6.34971 11.8943C9.35897 10.6242 11.3656 9.78684 12.3696 9.38222C15.2363 8.2271 15.832 8.02645 16.2202 8.01976C16.3056 8.01839 16.4966 8.03887 16.6202 8.13609C16.7025 8.20534 16.7549 8.30198 16.7672 8.4069C16.7881 8.53716 16.7939 8.66929 16.7845 8.80081Z" fill="none"/>
</svg>
