<svg width="39" height="38" viewBox="0 0 39 38" fill="none" xmlns="http://www.w3.org/2000/svg">
    <path
        d="M28.5 18.25V27.25C28.5 27.449 28.421 27.6397 28.2803 27.7804C28.1397 27.921 27.9489 28 27.75 28H22.5C22.3011 28 22.1103 27.921 21.9697 27.7804C21.829 27.6397 21.75 27.449 21.75 27.25V22.375C21.75 22.2756 21.7105 22.1802 21.6402 22.1099C21.5698 22.0395 21.4745 22 21.375 22H17.625C17.5255 22 17.4302 22.0395 17.3598 22.1099C17.2895 22.1802 17.25 22.2756 17.25 22.375V27.25C17.25 27.449 17.171 27.6397 17.0303 27.7804C16.8897 27.921 16.6989 28 16.5 28H11.25C11.0511 28 10.8603 27.921 10.7197 27.7804C10.579 27.6397 10.5 27.449 10.5 27.25V18.25C10.5002 17.8523 10.6583 17.4709 10.9397 17.1897L18.4397 9.68972C18.721 9.40863 19.1023 9.25073 19.5 9.25073C19.8977 9.25073 20.279 9.40863 20.5603 9.68972L28.0603 17.1897C28.3417 17.4709 28.4998 17.8523 28.5 18.25Z"
        fill="none" />
</svg>