<svg width="65" height="64" viewBox="0 0 65 64" fill="none" xmlns="http://www.w3.org/2000/svg">
    <rect x="0.5" width="64" height="64" rx="32" fill="none" />
    <path
        d="M26.4193 22C24.264 22 22.5 23.7639 22.5 25.9193V38.0814C22.5 40.2367 24.2639 42 26.4193 42H38.5814C40.7367 42 42.5 40.2367 42.5 38.0814V25.9193C42.5 23.764 40.7367 22 38.5814 22H26.4193ZM27.405 25.3004C28.4384 25.3004 29.075 25.9788 29.0946 26.8706C29.0946 27.7427 28.4384 28.4402 27.385 28.4402H27.3656C26.3519 28.4402 25.6967 27.7427 25.6967 26.8706C25.6967 25.9788 26.3717 25.3004 27.405 25.3004H27.405ZM36.3105 29.4684C38.2979 29.4684 39.7878 30.7674 39.7878 33.5589V38.7702H36.7674V33.9083C36.7674 32.6866 36.3303 31.8531 35.2372 31.8531C34.4028 31.8531 33.9054 32.4149 33.687 32.9576C33.6073 33.1518 33.5877 33.4229 33.5877 33.6946V38.7702H30.5673C30.5673 38.7702 30.6069 30.5343 30.5673 29.6816H33.5883V30.9686C33.9897 30.3493 34.7076 29.4684 36.3105 29.4684V29.4684ZM25.8748 29.6822H28.8952V38.7702H25.8748V29.6822Z"
        fill="white" />
</svg>