<svg width="64" height="64" viewBox="0 0 64 64" fill="none" xmlns="http://www.w3.org/2000/svg">
<rect width="64" height="64" rx="32" fill="#F16F5E"/>
<path d="M43 32V40.5556C43 41.2039 42.7425 41.8256 42.284 42.284C41.8256 42.7425 41.2039 43 40.5556 43H23.4444C22.7961 43 22.1744 42.7425 21.716 42.284C21.2575 41.8256 21 41.2039 21 40.5556V32H43ZM36.8889 21C37.213 21 37.5239 21.1288 37.7531 21.358C37.9823 21.5872 38.1111 21.8981 38.1111 22.2222V23.4444H40.5556C41.2039 23.4444 41.8256 23.702 42.284 24.1604C42.7425 24.6188 43 25.2406 43 25.8889V29.5556H21V25.8889C21 25.2406 21.2575 24.6188 21.716 24.1604C22.1744 23.702 22.7961 23.4444 23.4444 23.4444H25.8889V22.2222C25.8889 21.8981 26.0177 21.5872 26.2469 21.358C26.4761 21.1288 26.787 21 27.1111 21C27.4353 21 27.7461 21.1288 27.9754 21.358C28.2046 21.5872 28.3333 21.8981 28.3333 22.2222V23.4444H35.6667V22.2222C35.6667 21.8981 35.7954 21.5872 36.0246 21.358C36.2539 21.1288 36.5647 21 36.8889 21Z" fill="white"/>
</svg>
