<svg width="20" height="20" viewBox="0 0 20 20" fill="none" xmlns="http://www.w3.org/2000/svg">
<path d="M18 10H17.5C17.5 14.1421 14.1421 17.5 10 17.5V18V18.5C14.6944 18.5 18.5 14.6944 18.5 10H18ZM10 18V17.5C5.85786 17.5 2.5 14.1421 2.5 10H2H1.5C1.5 14.6944 5.30558 18.5 10 18.5V18ZM2 10H2.5C2.5 5.85786 5.85786 2.5 10 2.5V2V1.5C5.30558 1.5 1.5 5.30558 1.5 10H2ZM10 2V2.5C14.1421 2.5 17.5 5.85786 17.5 10H18H18.5C18.5 5.30558 14.6944 1.5 10 1.5V2ZM10.4444 14H9.94444C9.94444 13.9693 9.96932 13.9444 10 13.9444V14.4444V14.9444C10.5216 14.9444 10.9444 14.5216 10.9444 14H10.4444ZM10 14.4444V13.9444C10.0307 13.9444 10.0556 13.9693 10.0556 14H9.55556H9.05556C9.05556 14.5216 9.4784 14.9444 10 14.9444V14.4444ZM9.55556 14H10.0556C10.0556 14.0307 10.0307 14.0556 10 14.0556V13.5556V13.0556C9.4784 13.0556 9.05556 13.4784 9.05556 14H9.55556ZM10 13.5556V14.0556C9.96932 14.0556 9.94444 14.0307 9.94444 14H10.4444H10.9444C10.9444 13.4784 10.5216 13.0556 10 13.0556V13.5556ZM10 11.7778H10.5V5.55556H10H9.5V11.7778H10Z" fill="#E90206"/>
</svg>
