<svg width="65" height="64" viewBox="0 0 65 64" fill="none" xmlns="http://www.w3.org/2000/svg">
    <rect x="0.5" width="64" height="64" rx="32" fill="none" />
    <path
        d="M33.5286 22C34.6536 22.003 35.2246 22.009 35.7176 22.023L35.9116 22.03C36.1356 22.038 36.3566 22.048 36.6236 22.06C37.6876 22.11 38.4136 22.278 39.0506 22.525C39.7106 22.779 40.2666 23.123 40.8226 23.678C41.3313 24.1777 41.7248 24.7825 41.9756 25.45C42.2226 26.087 42.3906 26.813 42.4406 27.878C42.4526 28.144 42.4626 28.365 42.4706 28.59L42.4766 28.784C42.4916 29.276 42.4976 29.847 42.4996 30.972L42.5006 31.718V33.028C42.503 33.7574 42.4953 34.4868 42.4776 35.216L42.4716 35.41C42.4636 35.635 42.4536 35.856 42.4416 36.122C42.3916 37.187 42.2216 37.912 41.9756 38.55C41.7248 39.2175 41.3313 39.8223 40.8226 40.322C40.3228 40.8307 39.7181 41.2242 39.0506 41.475C38.4136 41.722 37.6876 41.89 36.6236 41.94L35.9116 41.97L35.7176 41.976C35.2246 41.99 34.6536 41.997 33.5286 41.999L32.7826 42H31.4736C30.7438 42.0026 30.0141 41.9949 29.2846 41.977L29.0906 41.971C28.8532 41.962 28.6158 41.9517 28.3786 41.94C27.3146 41.89 26.5886 41.722 25.9506 41.475C25.2834 41.2241 24.679 40.8306 24.1796 40.322C23.6705 39.8224 23.2767 39.2176 23.0256 38.55C22.7786 37.913 22.6106 37.187 22.5606 36.122L22.5306 35.41L22.5256 35.216C22.5071 34.4868 22.4988 33.7574 22.5006 33.028V30.972C22.4978 30.2426 22.5051 29.5132 22.5226 28.784L22.5296 28.59C22.5376 28.365 22.5476 28.144 22.5596 27.878C22.6096 26.813 22.7776 26.088 23.0246 25.45C23.2763 24.7822 23.6708 24.1774 24.1806 23.678C24.6797 23.1695 25.2838 22.7761 25.9506 22.525C26.5886 22.278 27.3136 22.11 28.3786 22.06C28.6446 22.048 28.8666 22.038 29.0906 22.03L29.2846 22.024C30.0138 22.0062 30.7432 21.9986 31.4726 22.001L33.5286 22ZM32.5006 27C31.1745 27 29.9027 27.5268 28.965 28.4645C28.0274 29.4021 27.5006 30.6739 27.5006 32C27.5006 33.3261 28.0274 34.5979 28.965 35.5355C29.9027 36.4732 31.1745 37 32.5006 37C33.8267 37 35.0984 36.4732 36.0361 35.5355C36.9738 34.5979 37.5006 33.3261 37.5006 32C37.5006 30.6739 36.9738 29.4021 36.0361 28.4645C35.0984 27.5268 33.8267 27 32.5006 27ZM32.5006 29C32.8945 28.9999 33.2847 29.0775 33.6487 29.2282C34.0127 29.3789 34.3434 29.5998 34.622 29.8783C34.9007 30.1569 35.1217 30.4875 35.2725 30.8515C35.4233 31.2154 35.501 31.6055 35.5011 31.9995C35.5011 32.3935 35.4236 32.7836 35.2729 33.1476C35.1222 33.5116 34.9013 33.8423 34.6227 34.121C34.3442 34.3996 34.0135 34.6206 33.6496 34.7714C33.2856 34.9223 32.8955 34.9999 32.5016 35C31.7059 35 30.9429 34.6839 30.3802 34.1213C29.8176 33.5587 29.5016 32.7956 29.5016 32C29.5016 31.2044 29.8176 30.4413 30.3802 29.8787C30.9429 29.3161 31.7059 29 32.5016 29M37.7516 25.5C37.42 25.5 37.1021 25.6317 36.8677 25.8661C36.6333 26.1005 36.5016 26.4185 36.5016 26.75C36.5016 27.0815 36.6333 27.3995 36.8677 27.6339C37.1021 27.8683 37.42 28 37.7516 28C38.0831 28 38.401 27.8683 38.6355 27.6339C38.8699 27.3995 39.0016 27.0815 39.0016 26.75C39.0016 26.4185 38.8699 26.1005 38.6355 25.8661C38.401 25.6317 38.0831 25.5 37.7516 25.5Z"
        fill="white" />
</svg>