<svg width="145" height="99" viewBox="0 0 145 99" fill="none" xmlns="http://www.w3.org/2000/svg">
<path d="M56.92 61.44C58.8667 61.44 60.6333 61.9133 62.22 62.86C63.82 63.8067 65.0933 65.08 66.04 66.68C66.9867 68.2667 67.46 70.0333 67.46 71.98C67.46 73.4333 67.1867 74.8 66.64 76.08C66.0933 77.3467 65.3333 78.4667 64.36 79.44C63.4 80.4 62.28 81.1533 61 81.7C59.7333 82.2467 58.3733 82.52 56.92 82.52C55.2667 82.52 53.84 82.1267 52.64 81.34C51.44 80.5533 50.4933 79.5267 49.8 78.26V82H47V32H49.8V65.7C50.4933 64.4333 51.44 63.4067 52.64 62.62C53.84 61.8333 55.2667 61.44 56.92 61.44ZM56.9 79.78C58.3267 79.78 59.62 79.4333 60.78 78.74C61.94 78.0333 62.8667 77.0867 63.56 75.9C64.2533 74.7133 64.6 73.4067 64.6 71.98C64.6 70.5133 64.2467 69.1933 63.54 68.02C62.8333 66.8333 61.8933 65.8933 60.72 65.2C59.56 64.5067 58.2867 64.16 56.9 64.16C55.4867 64.16 54.26 64.5133 53.22 65.22C52.1933 65.9267 51.4 66.8733 50.84 68.06C50.2933 69.2467 50.02 70.5533 50.02 71.98C50.02 73.4333 50.3 74.7533 50.86 75.94C51.42 77.1133 52.2133 78.0467 53.24 78.74C54.28 79.4333 55.5 79.78 56.9 79.78Z" fill="black"/>
<path d="M70.8672 82V62H73.6672V64.76C74.3739 63.7467 75.2939 62.94 76.4272 62.34C77.5605 61.74 78.7939 61.44 80.1272 61.44C80.9005 61.44 81.6472 61.54 82.3672 61.74L81.2272 64.52C80.6672 64.3467 80.1205 64.26 79.5872 64.26C78.5072 64.26 77.5139 64.5267 76.6072 65.06C75.7139 65.5933 75.0005 66.3067 74.4672 67.2C73.9339 68.0933 73.6672 69.0867 73.6672 70.18V82H70.8672Z" fill="black"/>
<path d="M84.8906 62H87.6906V82H84.8906V62ZM86.3106 58.5C85.8573 58.5 85.4706 58.3533 85.1506 58.06C84.844 57.7533 84.6906 57.3733 84.6906 56.92C84.6906 56.4667 84.844 56.0933 85.1506 55.8C85.4706 55.4933 85.8573 55.34 86.3106 55.34C86.7506 55.34 87.124 55.4933 87.4306 55.8C87.7506 56.0933 87.9106 56.4667 87.9106 56.92C87.9106 57.3733 87.7573 57.7533 87.4506 58.06C87.144 58.3533 86.764 58.5 86.3106 58.5Z" fill="black"/>
<path d="M91.7078 74.34V62H94.5078V73.78C94.5078 74.8733 94.7745 75.8667 95.3078 76.76C95.8411 77.6533 96.5545 78.3667 97.4478 78.9C98.3545 79.4333 99.3478 79.7 100.428 79.7C101.521 79.7 102.508 79.4333 103.388 78.9C104.281 78.3667 104.994 77.6533 105.528 76.76C106.061 75.8667 106.328 74.8733 106.328 73.78V62H109.128L109.148 82H106.348L106.328 79.2C105.621 80.2133 104.701 81.02 103.568 81.62C102.448 82.22 101.221 82.52 99.8878 82.52C98.3811 82.52 97.0078 82.1533 95.7678 81.42C94.5278 80.6867 93.5411 79.7 92.8078 78.46C92.0745 77.22 91.7078 75.8467 91.7078 74.34Z" fill="black"/>
<path d="M113.133 82V62H115.933V64.76C116.653 63.7467 117.573 62.94 118.693 62.34C119.813 61.74 121.039 61.44 122.373 61.44C123.879 61.44 125.259 61.8133 126.513 62.56C127.766 63.2933 128.746 64.2733 129.453 65.5C130.159 64.2733 131.133 63.2933 132.373 62.56C133.613 61.8133 134.986 61.44 136.493 61.44C137.999 61.44 139.373 61.8067 140.613 62.54C141.853 63.2733 142.839 64.26 143.573 65.5C144.306 66.74 144.673 68.1133 144.673 69.62V82H141.873V70.24C141.873 69.1733 141.613 68.1867 141.093 67.28C140.573 66.3733 139.873 65.6467 138.993 65.1C138.126 64.54 137.159 64.26 136.093 64.26C135.026 64.26 134.053 64.52 133.173 65.04C132.306 65.5467 131.613 66.2533 131.093 67.16C130.573 68.0533 130.313 69.08 130.313 70.24V82H127.513V70.24C127.513 69.08 127.253 68.0533 126.733 67.16C126.213 66.2533 125.513 65.5467 124.633 65.04C123.753 64.52 122.779 64.26 121.713 64.26C120.659 64.26 119.693 64.54 118.813 65.1C117.933 65.6467 117.233 66.3733 116.713 67.28C116.193 68.1867 115.933 69.1733 115.933 70.24V82H113.133Z" fill="black"/>
<path d="M56.92 61.44C58.8667 61.44 60.6333 61.9133 62.22 62.86C63.82 63.8067 65.0933 65.08 66.04 66.68C66.9867 68.2667 67.46 70.0333 67.46 71.98C67.46 73.4333 67.1867 74.8 66.64 76.08C66.0933 77.3467 65.3333 78.4667 64.36 79.44C63.4 80.4 62.28 81.1533 61 81.7C59.7333 82.2467 58.3733 82.52 56.92 82.52C55.2667 82.52 53.84 82.1267 52.64 81.34C51.44 80.5533 50.4933 79.5267 49.8 78.26V82H47V32H49.8V65.7C50.4933 64.4333 51.44 63.4067 52.64 62.62C53.84 61.8333 55.2667 61.44 56.92 61.44ZM56.9 79.78C58.3267 79.78 59.62 79.4333 60.78 78.74C61.94 78.0333 62.8667 77.0867 63.56 75.9C64.2533 74.7133 64.6 73.4067 64.6 71.98C64.6 70.5133 64.2467 69.1933 63.54 68.02C62.8333 66.8333 61.8933 65.8933 60.72 65.2C59.56 64.5067 58.2867 64.16 56.9 64.16C55.4867 64.16 54.26 64.5133 53.22 65.22C52.1933 65.9267 51.4 66.8733 50.84 68.06C50.2933 69.2467 50.02 70.5533 50.02 71.98C50.02 73.4333 50.3 74.7533 50.86 75.94C51.42 77.1133 52.2133 78.0467 53.24 78.74C54.28 79.4333 55.5 79.78 56.9 79.78Z" fill="black"/>
<path d="M70.8672 82V62H73.6672V64.76C74.3739 63.7467 75.2939 62.94 76.4272 62.34C77.5605 61.74 78.7939 61.44 80.1272 61.44C80.9005 61.44 81.6472 61.54 82.3672 61.74L81.2272 64.52C80.6672 64.3467 80.1205 64.26 79.5872 64.26C78.5072 64.26 77.5139 64.5267 76.6072 65.06C75.7139 65.5933 75.0005 66.3067 74.4672 67.2C73.9339 68.0933 73.6672 69.0867 73.6672 70.18V82H70.8672Z" fill="black"/>
<path d="M84.8906 62H87.6906V82H84.8906V62ZM86.3106 58.5C85.8573 58.5 85.4706 58.3533 85.1506 58.06C84.844 57.7533 84.6906 57.3733 84.6906 56.92C84.6906 56.4667 84.844 56.0933 85.1506 55.8C85.4706 55.4933 85.8573 55.34 86.3106 55.34C86.7506 55.34 87.124 55.4933 87.4306 55.8C87.7506 56.0933 87.9106 56.4667 87.9106 56.92C87.9106 57.3733 87.7573 57.7533 87.4506 58.06C87.144 58.3533 86.764 58.5 86.3106 58.5Z" fill="black"/>
<path d="M91.7078 74.34V62H94.5078V73.78C94.5078 74.8733 94.7745 75.8667 95.3078 76.76C95.8411 77.6533 96.5545 78.3667 97.4478 78.9C98.3545 79.4333 99.3478 79.7 100.428 79.7C101.521 79.7 102.508 79.4333 103.388 78.9C104.281 78.3667 104.994 77.6533 105.528 76.76C106.061 75.8667 106.328 74.8733 106.328 73.78V62H109.128L109.148 82H106.348L106.328 79.2C105.621 80.2133 104.701 81.02 103.568 81.62C102.448 82.22 101.221 82.52 99.8878 82.52C98.3811 82.52 97.0078 82.1533 95.7678 81.42C94.5278 80.6867 93.5411 79.7 92.8078 78.46C92.0745 77.22 91.7078 75.8467 91.7078 74.34Z" fill="black"/>
<path d="M113.133 82V62H115.933V64.76C116.653 63.7467 117.573 62.94 118.693 62.34C119.813 61.74 121.039 61.44 122.373 61.44C123.879 61.44 125.259 61.8133 126.513 62.56C127.766 63.2933 128.746 64.2733 129.453 65.5C130.159 64.2733 131.133 63.2933 132.373 62.56C133.613 61.8133 134.986 61.44 136.493 61.44C137.999 61.44 139.373 61.8067 140.613 62.54C141.853 63.2733 142.839 64.26 143.573 65.5C144.306 66.74 144.673 68.1133 144.673 69.62V82H141.873V70.24C141.873 69.1733 141.613 68.1867 141.093 67.28C140.573 66.3733 139.873 65.6467 138.993 65.1C138.126 64.54 137.159 64.26 136.093 64.26C135.026 64.26 134.053 64.52 133.173 65.04C132.306 65.5467 131.613 66.2533 131.093 67.16C130.573 68.0533 130.313 69.08 130.313 70.24V82H127.513V70.24C127.513 69.08 127.253 68.0533 126.733 67.16C126.213 66.2533 125.513 65.5467 124.633 65.04C123.753 64.52 122.779 64.26 121.713 64.26C120.659 64.26 119.693 64.54 118.813 65.1C117.933 65.6467 117.233 66.3733 116.713 67.28C116.193 68.1867 115.933 69.1733 115.933 70.24V82H113.133Z" fill="black"/>
<path d="M19.375 98.1211C14.6927 98.1211 10.6764 96.6276 7.32617 93.6406C3.97591 90.6133 2.30078 85.9915 2.30078 79.7754C2.30078 73.7611 3.71354 67.6257 6.53906 61.3691C9.36458 55.0723 13.1992 49.0579 18.043 43.3262C22.9271 37.5944 28.457 32.4681 34.6328 27.9473C40.849 23.3861 47.3678 19.7936 54.1895 17.1699C61.0111 14.5059 67.7721 13.1738 74.4727 13.1738C80.1237 13.1738 84.2611 14.3848 86.8848 16.8066C89.5488 19.1882 90.8809 22.2357 90.8809 25.9492C90.8809 27.4427 90.5781 29.2389 89.9727 31.3379C89.4076 33.3965 88.8021 34.89 88.1562 35.8184C87.3893 36.7871 86.8646 37.2715 86.582 37.2715C86.2591 37.2715 86.0977 37.0697 86.0977 36.666C86.0977 36.5046 86.2995 36.1413 86.7031 35.5762C87.2279 34.9303 87.7728 33.6387 88.3379 31.7012C88.903 29.7233 89.1855 27.8464 89.1855 26.0703C89.1855 22.7604 87.9746 20.0762 85.5527 18.0176C83.1309 15.9186 79.2155 14.8691 73.8066 14.8691C69.4473 14.8691 64.765 15.9792 59.7598 18.1992C54.7949 20.4193 49.7897 23.4264 44.7441 27.2207C39.7389 30.9746 34.9557 35.2331 30.3945 39.9961C25.8737 44.7591 21.8171 49.724 18.2246 54.8906C14.6725 60.0573 11.8672 65.123 9.80859 70.0879C7.75 75.0124 6.7207 79.5332 6.7207 83.6504C6.7207 87.4447 7.83073 90.5527 10.0508 92.9746C12.2708 95.3965 15.6211 96.6074 20.1016 96.6074C24.4609 96.6074 29.1029 95.4974 34.0273 93.2773C38.9518 91.0169 43.7754 87.9896 48.498 84.1953C53.2611 80.3607 57.5599 76.082 61.3945 71.3594C65.2695 66.5964 68.3574 61.6921 70.6582 56.6465C72.9993 51.5605 74.1699 46.6764 74.1699 41.9941C74.1699 38.5228 73.2415 35.9596 71.3848 34.3047C69.5684 32.6497 67.0658 31.8223 63.877 31.8223C60.0423 31.8223 56.0462 32.9525 51.8887 35.2129C47.7715 37.4733 43.9368 40.5814 40.3848 44.5371C36.8327 48.4525 33.9466 52.9531 31.7266 58.0391C29.5065 63.0846 28.3965 68.4128 28.3965 74.0234C28.3965 75.5977 28.5781 77.4141 28.9414 79.4727C29.3451 81.5312 30.0918 83.3678 31.1816 84.9824C31.2624 85.1035 31.3431 85.2852 31.4238 85.5273C31.5449 85.7292 31.4642 85.9108 31.1816 86.0723C30.8991 86.1934 30.4349 85.8301 29.7891 84.9824C29.0221 84.0137 28.2956 82.4395 27.6094 80.2598C26.9232 78.0397 26.5801 75.7188 26.5801 73.2969C26.5801 67.5247 27.6699 62.0553 29.8496 56.8887C32.0293 51.6816 34.9355 47.0801 38.5684 43.084C42.2415 39.0475 46.3184 35.8789 50.7988 33.5781C55.2793 31.2773 59.8405 30.127 64.4824 30.127C67.7116 30.127 70.6178 31.1966 73.2012 33.3359C75.8249 35.4753 77.1367 38.8861 77.1367 43.5684C77.1367 48.1699 76.0267 52.9935 73.8066 58.0391C71.627 63.0443 68.6198 67.9284 64.7852 72.6914C60.9505 77.4141 56.571 81.6927 51.6465 85.5273C46.722 89.362 41.4948 92.4297 35.9648 94.7305C30.4349 96.9909 24.9049 98.1211 19.375 98.1211Z" fill="#70AEFF"/>
<path d="M49.7998 56H47V27H49.7998V56Z" fill="black"/>
<path d="M49.7998 82H47V53H49.7998V82Z" fill="black"/>
<path d="M56.92 61.44C58.8667 61.44 60.6333 61.9133 62.22 62.86C63.82 63.8067 65.0933 65.08 66.04 66.68C66.9867 68.2667 67.46 70.0333 67.46 71.98C67.46 73.4333 67.1867 74.8 66.64 76.08C66.0933 77.3467 65.3333 78.4667 64.36 79.44C63.4 80.4 62.28 81.1533 61 81.7C59.7333 82.2467 58.3733 82.52 56.92 82.52C55.2667 82.52 53.84 82.1267 52.64 81.34C51.44 80.5533 50.4933 79.5267 49.8 78.26V82H47V32H49.8V65.7C50.4933 64.4333 51.44 63.4067 52.64 62.62C53.84 61.8333 55.2667 61.44 56.92 61.44ZM56.9 79.78C58.3267 79.78 59.62 79.4333 60.78 78.74C61.94 78.0333 62.8667 77.0867 63.56 75.9C64.2533 74.7133 64.6 73.4067 64.6 71.98C64.6 70.5133 64.2467 69.1933 63.54 68.02C62.8333 66.8333 61.8933 65.8933 60.72 65.2C59.56 64.5067 58.2867 64.16 56.9 64.16C55.4867 64.16 54.26 64.5133 53.22 65.22C52.1933 65.9267 51.4 66.8733 50.84 68.06C50.2933 69.2467 50.02 70.5533 50.02 71.98C50.02 73.4333 50.3 74.7533 50.86 75.94C51.42 77.1133 52.2133 78.0467 53.24 78.74C54.28 79.4333 55.5 79.78 56.9 79.78Z" fill="black"/>
<path d="M49.9996 83.0008L57.4996 76.0008L59.5 78.5L51.9986 85.0013L49.9996 83.0008Z" fill="#70AEFF"/>
</svg>
