<svg width="170" height="102" viewBox="0 0 170 102" fill="none" xmlns="http://www.w3.org/2000/svg">
<path d="M21.226 101.174C15.6758 101.174 10.915 99.3981 6.94375 95.8467C2.97246 92.2472 0.986816 86.7521 0.986816 79.3613C0.986816 72.2104 2.66146 64.9156 6.01074 57.4767C9.36002 49.9899 13.9055 42.8391 19.6471 36.0242C25.4366 29.2092 31.9916 23.1142 39.3122 17.739C46.6806 12.3159 54.4079 8.04458 62.494 4.92508C70.5801 1.75758 78.5945 0.173828 86.537 0.173828C93.2356 0.173828 98.1399 1.6136 101.25 4.49314C104.408 7.3247 105.987 10.9481 105.987 15.3634C105.987 17.1391 105.628 19.2748 104.91 21.7704C104.24 24.218 103.523 25.9937 102.757 27.0976C101.848 28.2494 101.226 28.8253 100.891 28.8253C100.508 28.8253 100.317 28.5853 100.317 28.1054C100.317 27.9134 100.556 27.4815 101.035 26.8096C101.657 26.0417 102.303 24.506 102.972 22.2023C103.642 19.8507 103.977 17.6191 103.977 15.5074C103.977 11.572 102.542 8.38053 99.671 5.93292C96.8002 3.43731 92.1591 2.18951 85.7476 2.18951C80.5801 2.18951 75.0299 3.5093 69.0969 6.14888C63.2117 8.78846 57.2787 12.3639 51.2978 16.8752C45.3648 21.3385 39.695 26.4017 34.2882 32.0648C28.9294 37.7279 24.1208 43.6309 19.8624 49.774C15.6519 55.917 12.3265 61.94 9.88634 67.8431C7.44615 73.6982 6.22605 79.0733 6.22605 83.9686C6.22605 88.4798 7.54184 92.1753 10.1734 95.0548C12.805 97.9343 16.7763 99.3741 22.0873 99.3741C27.2548 99.3741 32.7572 98.0543 38.5945 95.4147C44.4318 92.7272 50.1495 89.1277 55.7476 84.6165C61.3935 80.0572 66.4892 74.97 71.0347 69.3549C75.628 63.6918 79.2882 57.8607 82.0155 51.8616C84.7906 45.8146 86.1782 40.0075 86.1782 34.4404C86.1782 30.3131 85.0777 27.2655 82.8768 25.2978C80.7237 23.3302 77.7571 22.3463 73.9772 22.3463C69.4318 22.3463 64.6949 23.6901 59.7667 26.3777C54.8863 29.0653 50.3409 32.7607 46.1304 37.4639C41.9198 42.1192 38.4988 47.4703 35.8672 53.5174C33.2356 59.5164 31.9198 65.8514 31.9198 72.5224C31.9198 74.3941 32.1351 76.5537 32.5658 79.0013C33.0442 81.449 33.9294 83.6326 35.2213 85.5523C35.317 85.6963 35.4127 85.9122 35.5083 86.2002C35.6519 86.4402 35.5562 86.6561 35.2213 86.8481C34.8863 86.9921 34.3361 86.5601 33.5705 85.5523C32.6615 84.4005 31.8002 82.5288 30.9868 79.9372C30.1734 77.2976 29.7667 74.538 29.7667 71.6585C29.7667 64.7956 31.0586 58.2926 33.6423 52.1496C36.226 45.9586 39.671 40.4874 43.9772 35.7362C48.3313 30.937 53.1638 27.1696 58.4749 24.434C63.7859 21.6984 69.1926 20.3306 74.6949 20.3306C78.5227 20.3306 81.9677 21.6024 85.0299 24.146C88.1399 26.6896 89.6949 30.745 89.6949 36.3121C89.6949 41.7832 88.3792 47.5183 85.7476 53.5174C83.1638 59.4684 79.5993 65.2755 75.0538 70.9386C70.5083 76.5537 65.317 81.6409 59.4796 86.2002C53.6423 90.7595 47.4461 94.4069 40.8911 97.1425C34.3361 99.83 27.7811 101.174 21.226 101.174Z" fill="#70AEFF"/>
<path d="M57.3589 82.0391H54.0356V47.6182H57.3589V82.0391Z" fill="black"/>
<path d="M65.6232 57.5555C67.9067 57.5555 69.979 58.1082 71.8402 59.2138C73.717 60.3194 75.2107 61.8064 76.3211 63.675C77.4316 65.528 77.9868 67.5912 77.9868 69.8646C77.9868 71.5619 77.6662 73.158 77.0249 74.6528C76.3837 76.1321 75.4922 77.4401 74.3505 78.5768C73.2244 79.698 71.9106 80.5778 70.4091 81.2162C68.9233 81.8546 67.328 82.1738 65.6232 82.1738C63.6838 82.1738 62.0103 81.7145 60.6027 80.7958C59.195 79.877 58.0846 78.678 57.2713 77.1988V81.5665H53.9868V23.1738H57.2713V62.5305C58.0846 61.0512 59.195 59.8522 60.6027 58.9335C62.0103 58.0148 63.6838 57.5555 65.6232 57.5555ZM65.5997 78.9739C67.2732 78.9739 68.7903 78.569 70.151 77.7593C71.5117 76.9341 72.5987 75.8285 73.412 74.4426C74.2253 73.0568 74.632 71.5308 74.632 69.8646C74.632 68.1518 74.2175 66.6102 73.3886 65.2399C72.5596 63.8541 71.457 62.7563 70.0807 61.9466C68.72 61.1369 67.2263 60.732 65.5997 60.732C63.9419 60.732 62.5029 61.1447 61.283 61.9699C60.0787 62.7952 59.1481 63.9008 58.4912 65.2867C57.85 66.6725 57.5293 68.1985 57.5293 69.8646C57.5293 71.5619 57.8578 73.1035 58.5147 74.4893C59.1716 75.8596 60.1022 76.9496 61.3065 77.7593C62.5264 78.569 63.9575 78.9739 65.5997 78.9739Z" fill="black"/>
<path d="M57.5959 83.2275L66.4979 74.919L68.8722 77.8854L59.9686 85.602L57.5959 83.2275Z" fill="#70AEFF"/>
<path d="M81 82.2706V58.8118H84.2975V62.0491C85.1298 60.8605 86.2132 59.9143 87.548 59.2106C88.8827 58.5068 90.3351 58.1549 91.9054 58.1549C92.8161 58.1549 93.6955 58.2722 94.5434 58.5068L93.2009 61.7676C92.5414 61.5643 91.8975 61.4626 91.2694 61.4626C89.9975 61.4626 88.8277 61.7754 87.7599 62.401C86.7079 63.0266 85.8678 63.8632 85.2397 64.9111C84.6116 65.9589 84.2975 67.124 84.2975 68.4064V82.2706H81Z" fill="black"/>
<path d="M97.5152 58.8118H100.813V82.2706H97.5152V58.8118ZM99.1876 54.7065C98.6537 54.7065 98.1983 54.5345 97.8214 54.1904C97.4603 53.8307 97.2797 53.385 97.2797 52.8532C97.2797 52.3215 97.4603 51.8836 97.8214 51.5396C98.1983 51.1799 98.6537 51 99.1876 51C99.7057 51 100.145 51.1799 100.507 51.5396C100.883 51.8836 101.072 52.3215 101.072 52.8532C101.072 53.385 100.891 53.8307 100.53 54.1904C100.169 54.5345 99.7215 54.7065 99.1876 54.7065Z" fill="black"/>
<path d="M122.068 58.8118H125.554L112.67 94H109.161L113.448 82.2706L104.992 58.8118H108.595L115.096 77.743L122.068 58.8118Z" fill="black"/>
<path d="M129.856 82.2706V58.8118H133.153V62.0491C134.001 60.8605 135.085 59.9143 136.404 59.2106C137.723 58.5068 139.167 58.1549 140.738 58.1549C142.512 58.1549 144.137 58.5928 145.613 59.4686C147.089 60.3288 148.243 61.4783 149.076 62.9171C149.908 61.4783 151.054 60.3288 152.514 59.4686C153.975 58.5928 155.592 58.1549 157.367 58.1549C159.141 58.1549 160.758 58.585 162.219 59.4452C163.679 60.3053 164.841 61.4626 165.705 62.9171C166.568 64.3715 167 65.9824 167 67.7496V82.2706H163.702V68.4768C163.702 67.2257 163.396 66.0684 162.784 65.0049C162.171 63.9414 161.347 63.0891 160.311 62.4479C159.29 61.7911 158.152 61.4626 156.895 61.4626C155.639 61.4626 154.493 61.7676 153.457 62.3775C152.436 62.9718 151.619 63.8007 151.007 64.8642C150.395 65.912 150.088 67.1162 150.088 68.4768V82.2706H146.791V68.4768C146.791 67.1162 146.485 65.912 145.872 64.8642C145.26 63.8007 144.435 62.9718 143.399 62.3775C142.363 61.7676 141.216 61.4626 139.96 61.4626C138.72 61.4626 137.581 61.7911 136.545 62.4479C135.509 63.0891 134.684 63.9414 134.072 65.0049C133.459 66.0684 133.153 67.2257 133.153 68.4768V82.2706H129.856Z" fill="black"/>
</svg>
